<mxfile host="app.diagrams.net" agent="Mozilla/5.0 (Macintosh; Intel Mac OS X 10_15_7) AppleWebKit/605.1.15 (KHTML, like Gecko) Version/17.1 Safari/605.1.15" version="28.1.2">
  <diagram name="Page-1" id="M7yt0uEMWB547Te_AfWl">
    <mxGraphModel dx="1437" dy="825" grid="1" gridSize="10" guides="1" tooltips="1" connect="1" arrows="1" fold="1" page="1" pageScale="1" pageWidth="850" pageHeight="1100" math="0" shadow="0">
      <root>
        <mxCell id="0" />
        <mxCell id="1" parent="0" />
        <mxCell id="dWiQfd8XXGTzeeqTbXw0-1" value="&lt;b&gt;Power Subsystem&lt;/b&gt;" style="rounded=0;whiteSpace=wrap;html=1;" vertex="1" parent="1">
          <mxGeometry x="220" y="345" width="160" height="80" as="geometry" />
        </mxCell>
        <mxCell id="dWiQfd8XXGTzeeqTbXw0-2" value="&lt;h1 style=&quot;margin-top: 0px;&quot;&gt;Power Subsystem&lt;/h1&gt;" style="text;html=1;whiteSpace=wrap;overflow=hidden;rounded=0;" vertex="1" parent="1">
          <mxGeometry x="200" y="170" width="230" height="40" as="geometry" />
        </mxCell>
        <mxCell id="dWiQfd8XXGTzeeqTbXw0-3" value="" style="endArrow=classic;html=1;rounded=0;exitX=0.25;exitY=1;exitDx=0;exitDy=0;" edge="1" parent="1" source="dWiQfd8XXGTzeeqTbXw0-1">
          <mxGeometry width="50" height="50" relative="1" as="geometry">
            <mxPoint x="500" y="455" as="sourcePoint" />
            <mxPoint x="260" y="505" as="targetPoint" />
          </mxGeometry>
        </mxCell>
        <mxCell id="dWiQfd8XXGTzeeqTbXw0-7" value="" style="endArrow=classic;html=1;rounded=0;exitX=0.75;exitY=1;exitDx=0;exitDy=0;" edge="1" parent="1" source="dWiQfd8XXGTzeeqTbXw0-1">
          <mxGeometry width="50" height="50" relative="1" as="geometry">
            <mxPoint x="340" y="425" as="sourcePoint" />
            <mxPoint x="340" y="505" as="targetPoint" />
          </mxGeometry>
        </mxCell>
        <mxCell id="dWiQfd8XXGTzeeqTbXw0-8" value="5V" style="text;html=1;align=center;verticalAlign=middle;resizable=0;points=[];autosize=1;strokeColor=none;fillColor=none;" vertex="1" parent="1">
          <mxGeometry x="240" y="510" width="40" height="30" as="geometry" />
        </mxCell>
        <mxCell id="dWiQfd8XXGTzeeqTbXw0-10" value="3.3V" style="text;html=1;align=center;verticalAlign=middle;resizable=0;points=[];autosize=1;strokeColor=none;fillColor=none;" vertex="1" parent="1">
          <mxGeometry x="315" y="510" width="50" height="30" as="geometry" />
        </mxCell>
        <mxCell id="dWiQfd8XXGTzeeqTbXw0-11" style="edgeStyle=orthogonalEdgeStyle;rounded=0;orthogonalLoop=1;jettySize=auto;html=1;exitX=0.5;exitY=1;exitDx=0;exitDy=0;entryX=0.25;entryY=0;entryDx=0;entryDy=0;" edge="1" parent="1" source="dWiQfd8XXGTzeeqTbXw0-12">
          <mxGeometry relative="1" as="geometry">
            <mxPoint x="305" y="345" as="targetPoint" />
          </mxGeometry>
        </mxCell>
        <mxCell id="dWiQfd8XXGTzeeqTbXw0-12" value="9V Battery" style="text;html=1;align=center;verticalAlign=middle;whiteSpace=wrap;rounded=0;" vertex="1" parent="1">
          <mxGeometry x="275" y="240" width="60" height="30" as="geometry" />
        </mxCell>
        <mxCell id="dWiQfd8XXGTzeeqTbXw0-13" value="Input/Output" style="rounded=0;whiteSpace=wrap;html=1;align=center;fillColor=#dae8fc;strokeColor=light-dark(#0064f0, #5c79a3);" vertex="1" parent="1">
          <mxGeometry x="490" y="345" width="120" height="20" as="geometry" />
        </mxCell>
        <mxCell id="dWiQfd8XXGTzeeqTbXw0-14" value="Interface" style="rounded=0;whiteSpace=wrap;html=1;align=center;fillColor=#dae8fc;strokeColor=light-dark(#0064F0,#5C79A3);" vertex="1" parent="1">
          <mxGeometry x="610" y="345" width="180" height="20" as="geometry" />
        </mxCell>
        <mxCell id="dWiQfd8XXGTzeeqTbXw0-15" value="9V Battery" style="rounded=0;whiteSpace=wrap;html=1;" vertex="1" parent="1">
          <mxGeometry x="490" y="365" width="120" height="40" as="geometry" />
        </mxCell>
        <mxCell id="dWiQfd8XXGTzeeqTbXw0-16" value="Input from 9V Battery" style="rounded=0;whiteSpace=wrap;html=1;" vertex="1" parent="1">
          <mxGeometry x="610" y="365" width="180" height="40" as="geometry" />
        </mxCell>
        <mxCell id="dWiQfd8XXGTzeeqTbXw0-17" value="5V" style="rounded=0;whiteSpace=wrap;html=1;" vertex="1" parent="1">
          <mxGeometry x="490" y="405" width="120" height="40" as="geometry" />
        </mxCell>
        <mxCell id="dWiQfd8XXGTzeeqTbXw0-18" value="Output from 5V Buck Converter&amp;nbsp;" style="rounded=0;whiteSpace=wrap;html=1;" vertex="1" parent="1">
          <mxGeometry x="610" y="405" width="180" height="40" as="geometry" />
        </mxCell>
        <mxCell id="dWiQfd8XXGTzeeqTbXw0-19" value="3.3V" style="rounded=0;whiteSpace=wrap;html=1;" vertex="1" parent="1">
          <mxGeometry x="490" y="445" width="120" height="40" as="geometry" />
        </mxCell>
        <mxCell id="dWiQfd8XXGTzeeqTbXw0-20" value="Output from 3.3V Buck Converter" style="rounded=0;whiteSpace=wrap;html=1;" vertex="1" parent="1">
          <mxGeometry x="610" y="445" width="180" height="40" as="geometry" />
        </mxCell>
      </root>
    </mxGraphModel>
  </diagram>
</mxfile>
